<svg width="54" height="54" viewBox="0 0 54 54" fill="none" xmlns="http://www.w3.org/2000/svg">
<path d="M11.2981 46.6057C9.28878 46.6057 7.57841 45.9017 6.16705 44.4937C4.75568 43.0858 4.05 41.3762 4.05 39.3648H0V11.0761C0 10.0943 0.368182 9.23523 1.10455 8.49886C1.84091 7.7625 2.7 7.39432 3.68182 7.39432H39.2114V17.642H45.6545L54 28.7489V39.3648H49.6432C49.6432 41.3762 48.9399 43.0858 47.5334 44.4937C46.1268 45.9017 44.4188 46.6057 42.4095 46.6057C40.4001 46.6057 38.6898 45.9017 37.2784 44.4937C35.867 43.0858 35.1614 41.3762 35.1614 39.3648H18.5318C18.5318 41.3693 17.8286 43.0773 16.422 44.4886C15.0154 45.9 13.3075 46.6057 11.2981 46.6057ZM11.2909 42.9239C12.2727 42.9239 13.1114 42.5761 13.8068 41.8807C14.5023 41.1852 14.85 40.3466 14.85 39.3648C14.85 38.383 14.5023 37.5443 13.8068 36.8489C13.1114 36.1534 12.2727 35.8057 11.2909 35.8057C10.3091 35.8057 9.47045 36.1534 8.775 36.8489C8.07955 37.5443 7.73182 38.383 7.73182 39.3648C7.73182 40.3466 8.07955 41.1852 8.775 41.8807C9.47045 42.5761 10.3091 42.9239 11.2909 42.9239ZM3.68182 35.683H5.03182C5.72727 34.5784 6.60766 33.6989 7.67297 33.0443C8.73828 32.3898 9.92465 32.0625 11.2321 32.0625C12.5395 32.0625 13.7352 32.4 14.8193 33.075C15.9034 33.75 16.7932 34.6193 17.4886 35.683H35.5295V11.0761H3.68182V35.683ZM42.4023 42.9239C43.3841 42.9239 44.2227 42.5761 44.9182 41.8807C45.6136 41.1852 45.9614 40.3466 45.9614 39.3648C45.9614 38.383 45.6136 37.5443 44.9182 36.8489C44.2227 36.1534 43.3841 35.8057 42.4023 35.8057C41.4205 35.8057 40.5818 36.1534 39.8864 36.8489C39.1909 37.5443 38.8432 38.383 38.8432 39.3648C38.8432 40.3466 39.1909 41.1852 39.8864 41.8807C40.5818 42.5761 41.4205 42.9239 42.4023 42.9239ZM39.2114 30.4057H50.625L43.8136 21.3239H39.2114V30.4057Z" fill="white"/>
</svg>
