<?xml version="1.0" encoding="UTF-8"?>
<svg id="Layer_2" data-name="Layer 2" xmlns="http://www.w3.org/2000/svg" viewBox="0 0 794.91 205.36">
  <defs>
    <style>
      .cls-1 {
        fill: none;
      }

      .cls-2 {
        fill: #001c35;
      }

      .cls-3 {
        fill: #fff;
      }
    </style>
  </defs>
  <g id="Layer_1-2" data-name="Layer 1">
    <g>
      <path class="cls-1" d="M221.71,127.78c-1.73-1.16-4.31-1.26-6.21-1.26h-12.03l-5.97,17.52c-1.07,2.35-4.08,2.35-9.44,3.09,0,0-1.35,.29-2.64,1.22-.62,.44-1.23,1.03-1.67,1.81,0,0-2.84,2.96-5.52,14.36l-1.26,7.29s.2,.16,.43,.44c.51,.62,1.17,1.81,.04,3.03,0,0-.51,.42-1.2,.4-.33,0-.69-.11-1.06-.4,0,0-1.9-2.88-2.05-3.42-.16-.54-.05-1.71,1-6.15,0,0,2.16-12.88,3.79-16.35,0,0,1.1-4.39,5.73-6.84,0,0,1.16-.47,4.24-1.5,.14-.05,.29-.1,.44-.15,0,0,.89-.11,2.95-2.05,0,0,.84-.91,1.05-3.13,0,0,.11-2.45-2.58-2.34l-7.67,.9-3.87,.45-.62,.07s-1.2,.45-2.16,1.22c-.09,.21-.17,.43-.27,.65l-2.03,2.93c-.2,.39-.39,.78-.53,1.13l-3.26,5.76-2.53,4.47-9.45,16.72s-2.5,3.28,.03,5.64c0,0-.03,.15,9.05,6.59,2.17,1.41,5.14,3.5,8.46,5.58,0,0,1,1,3.12-2.25,0,0,11.49-16.23,11.51-16.23,.06,0,5.65,.01,5.65,.01h10.74c3.2,0,5.7-.07,7.51-5.36l10.15-29.75c.09-2.05-.68-3.32-1.85-4.11Z"/>
      <path class="cls-1" d="M206.47,80.79h9.37c4.68,0,9.37-3.23,10.98-7.49l10.34-29.23,5.17-14.54c1.61-4.26-.81-7.49-5.49-7.49h-9.37c-4.68,0-9.37,3.23-10.98,7.49l-10.34,29.23-5.17,14.54c-1.62,4.26,.81,7.49,5.49,7.49Z"/>
      <path class="cls-1" d="M659.72,29.53c1.61-4.26-.81-7.49-5.49-7.49h-9.37c-4.68,0-9.37,3.23-10.98,7.49l-9.05,25.56h25.84l9.05-25.56Z"/>
      <path class="cls-1" d="M397.4,80.79h9.37c4.68,0,9.37-3.23,10.98-7.49l10.34-29.23,5.17-14.54c1.62-4.26-.81-7.49-5.49-7.49h-9.37c-4.68,0-9.37,3.23-10.98,7.49l-10.34,29.23-5.17,14.54c-1.61,4.26,.81,7.49,5.49,7.49Z"/>
      <path class="cls-3" d="M137.87,121.97l-31.29-23.47,44.9-19.14c2.27-1.82,3.86-4.1,4.76-6.61L179.6,.3h-38.55l-19.05,59.24c-.91,2.28-2.27,5.24-4.54,6.38l-38.78,15.27L104.77,.3h-38.55L0,205.36H38.55l29.03-90,27.67,19.37c1.36,1.14,1.13,4.1,.23,6.38l-20.64,64.25h38.55l24.72-76.79c.91-2.51,.68-4.78-.23-6.61Z"/>
      <path class="cls-3" d="M179.34,102.83h47.81c9.53,0,18.74-6.32,21.81-14.98l10.34-29.09h.16l15.67-43.78c3.07-8.67-1.62-14.98-11.15-14.98h-47.81c-9.53,0-18.74,6.32-21.81,14.98l-10.34,29.09h-.16l-15.67,43.78c-3.07,8.67,1.62,14.98,11.15,14.98Zm21.64-29.53l5.17-14.54,10.34-29.23c1.61-4.26,6.3-7.49,10.98-7.49h9.37c4.68,0,7.11,3.23,5.49,7.49l-5.17,14.54-10.34,29.23c-1.62,4.26-6.3,7.49-10.98,7.49h-9.37c-4.68,0-7.11-3.23-5.49-7.49Z"/>
      <path class="cls-3" d="M287.99,62.43h29.03c4.76,0,7.05,3.23,5.58,7.49l-1.64,4.41c-1.97,3.67-6.23,6.46-10.66,6.46h-45.77l-8.04,22.03h65.29c9.68,0,19.03-6.32,22.14-14.98l3.94-10.72,.49-1.32,6.23-17.04,1.15-3.38c3.12-8.67-1.64-14.98-11.32-14.98h-29.03c-4.76,0-7.05-3.23-5.58-7.49l1.64-4.41c1.97-3.67,6.23-6.46,10.66-6.46h45.77L375.92,0h-65.29c-9.68,0-19.03,6.32-22.14,14.98l-3.94,10.72-.49,1.32-6.23,17.04-1.15,3.38c-3.12,8.67,1.64,14.98,11.32,14.98Z"/>
      <path class="cls-3" d="M374.78,44.07l-15.67,43.78c-3.07,8.67,1.62,14.98,11.15,14.98h47.81c9.53,0,18.74-6.32,21.81-14.98l10.34-29.09h.16l15.67-43.78c3.07-8.67-1.62-14.98-11.15-14.98h-47.81c-9.53,0-18.74,6.32-21.81,14.98l-10.34,29.09h-.16Zm17.12,29.23l5.17-14.54,10.34-29.23c1.62-4.26,6.3-7.49,10.98-7.49h9.37c4.68,0,7.11,3.23,5.49,7.49l-5.17,14.54-10.34,29.23c-1.61,4.26-6.3,7.49-10.98,7.49h-9.37c-4.68,0-7.11-3.23-5.49-7.49Z"/>
      <path class="cls-3" d="M478.32,102.83l18.41-51.41,.65,51.41h20.03l37.47-51.41-18.41,51.41h27.46L600.76,0h-29.07c-2.91,0-6.3,1.62-8.24,4.11l-39.74,53.18-1.62-53.18c-.32-2.5-2.42-4.11-5.33-4.11h-29.07l-36.83,102.83h27.46Z"/>
      <path class="cls-3" d="M607.7,102.83l9.21-25.71h25.84l-9.21,25.71h27.46l31.5-87.85c3.07-8.67-1.62-14.98-11.15-14.98h-47.81c-9.53,0-18.74,6.32-21.81,14.98l-31.5,87.85h27.46Zm26.17-73.3c1.61-4.26,6.3-7.49,10.98-7.49h9.37c4.68,0,7.11,3.23,5.49,7.49l-9.05,25.56h-25.84l9.05-25.56Z"/>
      <path class="cls-3" d="M767.45,0l-8.24,22.77c-.48,1.47-1.62,2.94-3.23,4.11l-15.02,10.87-7.27-10.87c-.65-1.18-.81-2.64-.32-4.11l8.24-22.77h-27.46l-9.05,25.12c-.49,1.62-.49,3.09,.32,4.26l15.35,22.03-31.17,22.03c-1.45,1.18-2.75,2.64-3.23,4.26l-9.05,25.12h27.46l8.24-22.77c.48-1.47,1.61-2.94,3.23-4.11l15.02-11.02,7.27,11.02c.65,1.18,.81,2.64,.32,4.11l-8.24,22.77h27.46l9.05-25.12c.48-1.62,.48-3.09-.32-4.26l-15.34-22.03,31.17-22.03c1.45-1.18,2.75-2.64,3.23-4.26l9.05-25.12h-27.46Z"/>
      <path class="cls-1" d="M613.9,144.94h-5.57c-2.79,0-5.58,2.42-6.54,5.6l-5.38,19.12h15.38l5.38-19.12c.96-3.19-.48-5.6-3.27-5.6Z"/>
      <path class="cls-1" d="M461.54,144.94h-10.48l-3.17,11.32-2.6,9.01h10.48c2.79,0,5.58-2.42,6.44-5.6l2.6-9.12c.96-3.19-.48-5.6-3.27-5.6Z"/>
      <path class="cls-1" d="M265.94,144.98h-5.58c-2.79,0-5.57,2.42-6.54,5.6l-6.15,21.85-3.08,10.87c-.96,3.18,.48,5.6,3.27,5.6h5.57c2.79,0,5.58-2.42,6.54-5.6l6.15-21.85,3.08-10.87c.96-3.18-.48-5.6-3.27-5.6Z"/>
      <path class="cls-3" d="M282.09,128.51h-28.45c-5.67,0-11.15,4.72-12.98,11.2l-6.15,21.74h-.1l-9.32,32.72c-1.83,6.48,.96,11.2,6.63,11.2h28.45c5.67,0,11.15-4.72,12.98-11.2l6.15-21.74h.1l9.32-32.72c1.83-6.48-.96-11.2-6.63-11.2Zm-12.88,22.07l-3.08,10.87-6.15,21.85c-.96,3.18-3.75,5.6-6.54,5.6h-5.57c-2.79,0-4.23-2.42-3.27-5.6l3.08-10.87,6.15-21.85c.96-3.18,3.75-5.6,6.54-5.6h5.58c2.79,0,4.23,2.42,3.27,5.6Z"/>
      <path class="cls-3" d="M365.04,128.46l-15.57,54.82c-.96,3.19-3.75,5.6-6.54,5.6h-5.58c-2.79,0-4.23-2.42-3.27-5.6l15.57-54.82h-16.34l-15.57,54.82c-.96,3.19-3.75,5.6-6.54,5.6h-5.57c-2.79,0-4.23-2.42-3.27-5.6l15.57-54.82h-16.34l-18.74,65.69c-1.83,6.48,.96,11.21,6.63,11.21h21.24c4.04,0,7.98-2.42,10.57-6.15,.48,3.74,3.08,6.15,7.11,6.15h21.24c5.67,0,11.15-4.72,12.98-11.21l18.74-65.69h-16.34Z"/>
      <path class="cls-3" d="M394.64,172.95h19.51l4.71-16.48h-19.51l3.27-11.53h23.36l4.71-16.48h-39.7l-20.28,71.3c-.96,3.19,.48,5.6,3.27,5.6h34.79l4.71-16.48h-20.95c-1.35,0-2.02-1.21-1.63-2.75l3.75-13.18Z"/>
      <path class="cls-3" d="M477.69,128.46h-38.25l-15.19,53.28-6.73,23.62h16.34l6.73-23.62h10.38l-.77,23.62h16.34l.77-24.72c3.75-1.76,6.92-5.49,8.17-10.11l8.84-30.87c1.83-6.48-.96-11.21-6.63-11.21Zm-12.88,22.08l-2.6,9.12c-.87,3.19-3.65,5.6-6.44,5.6h-10.48l2.6-9.01,3.17-11.32h10.48c2.79,0,4.23,2.42,3.27,5.6Z"/>
      <path class="cls-1" d="M166.27,140.25s3.77-4.77,4.31-6.9c.54-2.13,2.1-3.87-1-9.68,0,0-5.05-6.61,4.68-6.84h1.59s12.14,.1,12.14,.1l7.94,.06,16.15,.12s3.68,.59,3.68-3.19l-21.04,.28s-2.39,.03-5.82,.07c-4.41,.05-10.56,.12-15.59,.15,0,0-3.16,0-5.21,1.48,0,0-4.16,2.17-1.21,7.12,0,0,.79,1.48,1.79,4.27,0,0,1.1,3.02-1.16,7.92l-8.63,12.19s-4.33,5.85-4.42,6.5c0,0,.91-.04,1.53-.63l5.21-6.67,5.05-6.38Z"/>
      <path class="cls-1" d="M175.41,135.99c-.5,.4-.94,.89-1.1,1.46,0,0-.65,1.04-1.21,2.12l2.03-2.93c.1-.22,.19-.43,.27-.65Z"/>
      <path class="cls-3" d="M241.96,121.48c2.11-6.2-1.11-10.72-7.66-10.72h-61.1c-13.05,.86-11.25,9.13-10.8,9.98,.44,.85,3.16,5.85,3.09,7.45-.07,1.6-2.7,7.17-3.79,8.66-1.09,1.5-14.83,20.44-14.83,20.44l-1.68,2.24c-.88,1.06-2.21,1.75-2.21,1.75-1.65,.42-2.35,.46-2.35,.46-1.54,.3-2.24,1.6-2.24,1.6l-1.12,1.98c-1.12,2.93,.67,3.5,.67,3.5l26.24,17.73-6.46,18.84h18.87l7.77-22.6h25.31c6.55,0,12.88-4.52,14.99-10.72l17.32-50.56Zm-87.47,32.44c.09-.65,4.42-6.5,4.42-6.5l8.63-12.19c2.26-4.9,1.16-7.92,1.16-7.92-1-2.79-1.79-4.27-1.79-4.27-2.95-4.96,1.21-7.12,1.21-7.12,2.05-1.48,5.21-1.48,5.21-1.48,5.03-.03,11.17-.1,15.59-.15,3.43-.04,5.82-.07,5.82-.07l21.04-.28c0,3.78-3.68,3.19-3.68,3.19l-24.09-.18-13.73-.1c-9.73,.23-4.68,6.84-4.68,6.84,3.1,5.81,1.54,7.55,1,9.68-.54,2.13-4.31,6.9-4.31,6.9l-5.05,6.38-5.21,6.67c-.62,.59-1.53,.63-1.53,.63Zm58.92,7.71c-1.81,5.29-4.3,5.36-7.51,5.36h-10.74s-5.59-.01-5.65-.01c-.02,0-11.51,16.23-11.51,16.23-2.12,3.25-3.12,2.25-3.12,2.25-3.31-2.08-6.29-4.16-8.46-5.58-9.07-6.44-9.05-6.59-9.05-6.59-2.53-2.36-.03-5.64-.03-5.64l9.45-16.72,2.53-4.47,3.26-5.76c.14-.35,.33-.74,.53-1.13,.55-1.07,1.21-2.12,1.21-2.12,.16-.57,.6-1.06,1.1-1.46,.96-.77,2.16-1.22,2.16-1.22l.62-.07,3.87-.45,7.67-.9c2.68-.11,2.58,2.34,2.58,2.34-.21,2.22-1.05,3.13-1.05,3.13-2.05,1.94-2.95,2.05-2.95,2.05-.15,.05-.3,.1-.44,.15-3.08,1.03-4.24,1.5-4.24,1.5-4.63,2.45-5.73,6.84-5.73,6.84-1.63,3.48-3.79,16.35-3.79,16.35-1.05,4.44-1.15,5.62-1,6.15,.16,.54,2.05,3.42,2.05,3.42,.37,.29,.74,.4,1.06,.4,.69,.02,1.2-.4,1.2-.4,1.13-1.22,.47-2.41-.04-3.03-.23-.28-.43-.44-.43-.44l1.26-7.29c2.68-11.4,5.52-14.36,5.52-14.36,.44-.77,1.05-1.36,1.67-1.81,1.3-.93,2.64-1.22,2.64-1.22,5.36-.74,8.37-.74,9.44-3.09l5.97-17.52h12.03c1.91,0,4.49,.1,6.21,1.26,1.17,.78,1.95,2.05,1.85,4.11l-10.15,29.75Z"/>
      <polygon class="cls-2" points="188 116.93 212.09 117.11 195.94 116.99 188 116.93"/>
      <polygon class="cls-2" points="174.26 116.82 188 116.93 175.86 116.84 174.26 116.82"/>
      <path class="cls-3" d="M630.05,128.46h-28.45c-5.67,0-11.15,4.72-12.98,11.21l-18.74,65.69h16.34l5.48-19.22h15.38l-5.48,19.22h16.34l18.74-65.69c1.83-6.48-.96-11.21-6.63-11.21Zm-12.88,22.08l-5.38,19.12h-15.38l5.38-19.12c.96-3.19,3.75-5.6,6.54-5.6h5.57c2.79,0,4.23,2.42,3.27,5.6Z"/>
      <path class="cls-3" d="M684.84,169.88c1.83-6.48-.96-11.21-6.63-11.21h-17.01c-2.79,0-4.13-2.42-3.27-5.6l.96-3.3c1.15-2.75,3.65-4.83,6.25-4.83h26.82l4.71-16.48h-38.25c-5.67,0-11.15,4.72-12.98,11.21l-2.31,8.02-.29,.99-3.65,12.74-.67,2.53c-1.83,6.48,.96,11.21,6.63,11.21h17.01c2.79,0,4.13,2.42,3.27,5.6l-.96,3.3c-1.15,2.75-3.65,4.83-6.25,4.83h-26.82l-4.71,16.48h38.26c5.67,0,11.15-4.72,12.98-11.21l2.31-8.02,.29-.99,3.65-12.74,.67-2.53Z"/>
      <polygon class="cls-3" points="729.15 156.47 713.77 156.47 721.75 128.46 705.41 128.46 683.49 205.36 699.83 205.36 709.06 172.95 724.44 172.95 715.21 205.36 731.55 205.36 753.46 128.46 737.12 128.46 729.15 156.47"/>
      <path class="cls-3" d="M585.46,124.2l1.47-4.88,.42-1.39,.76-2.53,.16-.53,1.05-3.49h-16.5l-1.05,3.49-.16,.53-.76,2.53-.42,1.39-1.47,4.88-1.29,4.27-16.88,55.91c-.87,3.03-3.69,5.33-6.5,5.33h-5.63c-2.82,0-4.27-2.3-3.4-5.33l16.88-55.91,1.29-4.27,1.47-4.88,.42-1.39,.76-2.53,.16-.53,1.05-3.49h-16.5l-1.05,3.49-.16,.53-.76,2.53-.42,1.39-1.26,4.18-.21,.7-1.29,4.27-16.88,55.91c-.36,1.24-1.04,2.35-1.91,3.23-1.26,1.28-2.93,2.09-4.59,2.09h-5.63c-2.81,0-4.27-2.3-3.4-5.33l16.88-55.91,1.29-4.27,1.47-4.88,.42-1.39,.76-2.53,.16-.53,1.05-3.49h-16.5l-1.05,3.49-.16,.53-.76,2.53-.42,1.39-1.47,4.88-1.29,4.27-19.98,66.25c-1.84,6.16,.97,10.65,6.7,10.65h21.45c4.08,0,8.06-2.3,10.68-5.85,.49,3.55,3.11,5.85,7.18,5.85h21.45c5.73,0,11.26-4.49,13.1-10.65l19.98-66.25,1.29-4.27Z"/>
      <polygon class="cls-3" points="504.2 113.12 505.23 111.37 252.24 111.37 251.23 113.38 504.04 113.38 504.2 113.12"/>
      <polygon class="cls-3" points="247.95 119.92 500.15 119.92 501.42 117.92 502.87 115.65 250.1 115.65 247.95 119.92"/>
      <polygon class="cls-3" points="594.13 113.12 593.95 113.38 759.94 113.38 760.61 111.37 595.27 111.37 594.13 113.12"/>
      <polygon class="cls-3" points="591.13 117.92 589.73 119.92 758.22 119.92 759.66 115.65 592.73 115.65 591.13 117.92"/>
    </g>
  </g>
</svg>