<svg width="54" height="54" viewBox="0 0 54 54" fill="none" xmlns="http://www.w3.org/2000/svg">
<path d="M24.975 42.525H26.6625L36.5175 27.675H29.025V16.875H27.3375L17.4825 31.725H24.975V42.525ZM27 54C20.835 54 15.6938 51.885 11.5763 47.655C7.45877 43.425 5.40002 38.16 5.40002 31.86C5.40002 27.36 7.18877 22.4663 10.7663 17.1788C14.3438 11.8913 19.755 6.165 27 0C34.245 6.165 39.6563 11.8913 43.2338 17.1788C46.8113 22.4663 48.6 27.36 48.6 31.86C48.6 38.16 46.5413 43.425 42.4238 47.655C38.3063 51.885 33.165 54 27 54ZM27 49.95C32.04 49.95 36.225 48.2288 39.555 44.7863C42.885 41.3438 44.55 37.035 44.55 31.86C44.55 28.305 43.0538 24.2663 40.0613 19.7438C37.0688 15.2213 32.715 10.44 27 5.4C21.285 10.44 16.9313 15.2213 13.9388 19.7438C10.9463 24.2663 9.45002 28.305 9.45002 31.86C9.45002 37.035 11.115 41.3438 14.445 44.7863C17.775 48.2288 21.96 49.95 27 49.95Z" fill="white"/>
</svg>
