<svg width="54" height="54" viewBox="0 0 54 54" fill="none" xmlns="http://www.w3.org/2000/svg">
<g clip-path="url(#clip0_6_15)">
<path d="M27 27.135C26.2159 27.135 25.5586 26.8698 25.0282 26.3394C24.4977 25.8089 24.2325 25.1516 24.2325 24.3675C24.2325 23.5834 24.4977 22.9261 25.0282 22.3956C25.5586 21.8652 26.2159 21.6 27 21.6C27.7841 21.6 28.4414 21.8652 28.9718 22.3956C29.5023 22.9261 29.7675 23.5834 29.7675 24.3675C29.7675 25.1516 29.5023 25.8089 28.9718 26.3394C28.4414 26.8698 27.7841 27.135 27 27.135ZM27 16.335C26.2159 16.335 25.5586 16.0698 25.0282 15.5394C24.4977 15.0089 24.2325 14.3516 24.2325 13.5675C24.2325 12.7834 24.4977 12.1261 25.0282 11.5956C25.5586 11.0652 26.2159 10.8 27 10.8C27.7841 10.8 28.4414 11.0652 28.9718 11.5956C29.5023 12.1261 29.7675 12.7834 29.7675 13.5675C29.7675 14.3516 29.5023 15.0089 28.9718 15.5394C28.4414 16.0698 27.7841 16.335 27 16.335ZM27 5.535C26.2159 5.535 25.5586 5.26979 25.0282 4.73938C24.4977 4.20892 24.2325 3.55163 24.2325 2.7675C24.2325 1.98338 24.4977 1.32608 25.0282 0.795623C25.5586 0.265208 26.2159 0 27 0C27.7841 0 28.4414 0.265208 28.9718 0.795623C29.5023 1.32608 29.7675 1.98338 29.7675 2.7675C29.7675 3.55163 29.5023 4.20892 28.9718 4.73938C28.4414 5.26979 27.7841 5.535 27 5.535ZM35.0325 32.4675C34.2484 32.4675 33.5911 32.2023 33.0606 31.6719C32.5302 31.1414 32.265 30.4841 32.265 29.7C32.265 28.9159 32.5302 28.2586 33.0606 27.7281C33.5911 27.1977 34.2484 26.9325 35.0325 26.9325C35.8166 26.9325 36.4739 27.1977 37.0044 27.7281C37.5348 28.2586 37.8 28.9159 37.8 29.7C37.8 30.4841 37.5348 31.1414 37.0044 31.6719C36.4739 32.2023 35.8166 32.4675 35.0325 32.4675ZM42.66 24.7725C41.8759 24.7725 41.2186 24.5073 40.6881 23.9769C40.1577 23.4464 39.8925 22.7891 39.8925 22.005C39.8925 21.2209 40.1577 20.5636 40.6881 20.0331C41.2186 19.5027 41.8759 19.2375 42.66 19.2375C43.4441 19.2375 44.1014 19.5027 44.6319 20.0331C45.1623 20.5636 45.4275 21.2209 45.4275 22.005C45.4275 22.7891 45.1623 23.4464 44.6319 23.9769C44.1014 24.5073 43.4441 24.7725 42.66 24.7725ZM50.2875 17.2125C49.5034 17.2125 48.8461 16.9473 48.3156 16.4169C47.7852 15.8864 47.52 15.2291 47.52 14.445C47.52 13.6609 47.7852 13.0036 48.3156 12.4731C48.8461 11.9427 49.5034 11.6775 50.2875 11.6775C51.0716 11.6775 51.7289 11.9427 52.2594 12.4731C52.7898 13.0036 53.055 13.6609 53.055 14.445C53.055 15.2291 52.7898 15.8864 52.2594 16.4169C51.7289 16.9473 51.0716 17.2125 50.2875 17.2125ZM18.9675 32.4675C18.1834 32.4675 17.5261 32.2023 16.9957 31.6719C16.4652 31.1414 16.2 30.4841 16.2 29.7C16.2 28.9159 16.4652 28.2586 16.9957 27.7281C17.5261 27.1977 18.1834 26.9325 18.9675 26.9325C19.7516 26.9325 20.4089 27.1977 20.9393 27.7281C21.4698 28.2586 21.735 28.9159 21.735 29.7C21.735 30.4841 21.4698 31.1414 20.9393 31.6719C20.4089 32.2023 19.7516 32.4675 18.9675 32.4675ZM11.34 24.7725C10.5559 24.7725 9.89861 24.5073 9.3682 23.9769C8.83774 23.4464 8.57251 22.7891 8.57251 22.005C8.57251 21.2209 8.83774 20.5636 9.3682 20.0331C9.89861 19.5027 10.5559 19.2375 11.34 19.2375C12.1241 19.2375 12.7814 19.5027 13.3118 20.0331C13.8423 20.5636 14.1075 21.2209 14.1075 22.005C14.1075 22.7891 13.8423 23.4464 13.3118 23.9769C12.7814 24.5073 12.1241 24.7725 11.34 24.7725ZM3.71251 17.2125C2.92838 17.2125 2.27109 16.9473 1.74063 16.4169C1.21022 15.8864 0.945007 15.2291 0.945007 14.445C0.945007 13.6609 1.21022 13.0036 1.74063 12.4731C2.27109 11.9427 2.92838 11.6775 3.71251 11.6775C4.49663 11.6775 5.1539 11.9427 5.68432 12.4731C6.21478 13.0036 6.48001 13.6609 6.48001 14.445C6.48001 15.2291 6.21478 15.8864 5.68432 16.4169C5.1539 16.9473 4.49663 17.2125 3.71251 17.2125ZM24.975 54V42.525H14.175V38.475H39.825V42.525H29.025V54H24.975Z" fill="white"/>
</g>
<defs>
<clipPath id="clip0_6_15">
<rect width="54" height="54" fill="white"/>
</clipPath>
</defs>
</svg>
